<svg width="280" height="280" viewBox="0 0 280 280" fill="none" xmlns="http://www.w3.org/2000/svg">
<g clip-path="url(#clip0_13976_938)">
<rect width="279.838" height="279.838" rx="61.2146" fill="white"/>
<g filter="url(#filter0_f_13976_938)">
<ellipse cx="139.675" cy="-65.7113" rx="264.194" ry="225.609" fill="url(#paint0_linear_13976_938)"/>
</g>
<path d="M172.634 87.5273C202.503 87.5273 222.673 109.138 222.673 140.639C222.672 172.141 202.503 193.557 172.634 193.557V193.553H106.711V193.557C76.842 193.557 56.6722 172.141 56.6719 140.639C56.6719 109.192 76.7708 87.6022 106.554 87.5273H172.634ZM106.711 107.793C91.1521 107.793 81.1621 120.278 81.1621 140.639C81.1623 160.837 90.9897 173.208 106.554 173.29H172.634C188.288 173.29 198.182 160.904 198.182 140.639C198.182 120.278 188.193 107.79 172.634 107.79L106.711 107.793Z" fill="url(#paint1_linear_13976_938)"/>
</g>
<defs>
<filter id="filter0_f_13976_938" x="-218.966" y="-385.767" width="717.28" height="640.113" filterUnits="userSpaceOnUse" color-interpolation-filters="sRGB">
<feFlood flood-opacity="0" result="BackgroundImageFix"/>
<feBlend mode="normal" in="SourceGraphic" in2="BackgroundImageFix" result="shape"/>
<feGaussianBlur stdDeviation="47.2234" result="effect1_foregroundBlur_13976_938"/>
</filter>
<linearGradient id="paint0_linear_13976_938" x1="139.675" y1="-0.837567" x2="139.675" y2="159.898" gradientUnits="userSpaceOnUse">
<stop stop-color="#00748F"/>
<stop offset="0.360577" stop-color="#59EAA1"/>
<stop offset="1" stop-color="#88FFCD"/>
</linearGradient>
<linearGradient id="paint1_linear_13976_938" x1="139.672" y1="193.557" x2="139.672" y2="87.5273" gradientUnits="userSpaceOnUse">
<stop offset="0.447115" stop-color="#0A271C"/>
<stop offset="1" stop-color="#1C6F4D"/>
</linearGradient>
<clipPath id="clip0_13976_938">
<rect width="279.838" height="279.838" rx="61.2146" fill="white"/>
</clipPath>
</defs>
</svg>
