<svg width="693" height="89" viewBox="0 0 693 89" fill="none" xmlns="http://www.w3.org/2000/svg">
    <path
        d="M663.967 88.3773C645.584 88.3773 634.102 74.9814 634.102 56.4244C634.102 37.8093 646.222 24.3555 663.387 24.3555C681.016 24.3555 692.73 37.4034 692.73 56.1924V60.1938H648.425C648.773 70.1682 654.456 76.8371 664.315 76.8371C671.68 76.8371 676.609 73.2997 678.291 68.0805H691.976C689.657 80.0846 678.291 88.3773 663.967 88.3773ZM648.541 50.1034H678.696C677.769 41.3468 672.085 35.9536 663.619 35.9536C655.152 35.9536 649.527 41.3468 648.541 50.1034Z"
        fill="#011C22" />
    <path
        d="M593.275 88.2022C577.27 88.2022 566.773 75.3862 566.773 56.3073C566.773 37.4603 577.444 24.5283 593.159 24.5283C601.104 24.5283 607.657 27.7178 611.6 34.4447H611.716V0.578125H626.33V86.9844H611.948V77.6479H611.832C608.005 84.7227 601.278 88.2022 593.275 88.2022ZM596.697 75.9661C606.265 75.9661 612.528 68.2534 612.528 56.3073C612.528 44.4192 606.265 36.6484 596.697 36.6484C587.65 36.6484 581.561 43.6653 581.561 56.3073C581.561 69.0072 587.65 75.9661 596.697 75.9661Z"
        fill="#011C22" />
    <path
        d="M360.785 86.9873V25.7491H374.935V36.3614C378.646 28.4746 385.663 24.5312 393.376 24.5312C401.669 24.5312 408.454 29.1125 411.005 36.1294C414.253 29.0545 421.56 24.5312 430.49 24.5312C442.088 24.5312 451.019 32.186 451.019 46.5677V86.9873H436.347V48.6554C436.347 40.5367 431.244 36.9413 424.981 36.9413C417.558 36.9413 412.977 42.1025 412.977 49.4093V86.9873H398.769V47.9595C398.769 41.2906 394.13 36.9413 387.635 36.9413C381.024 36.9413 375.399 41.6965 375.399 50.4531V86.9873H360.785Z"
        fill="#011C22" />
    <path
        d="M323.354 88.3773C304.97 88.3773 293.488 74.9814 293.488 56.4244C293.488 37.8093 305.608 24.3555 322.774 24.3555C340.403 24.3555 352.117 37.4034 352.117 56.1924V60.1938H307.812C308.16 70.1682 313.843 76.8371 323.701 76.8371C331.066 76.8371 335.996 73.2997 337.677 68.0805H351.363C349.043 80.0846 337.677 88.3773 323.354 88.3773ZM307.928 50.1034H338.083C337.155 41.3468 331.472 35.9536 323.006 35.9536C314.539 35.9536 308.914 41.3468 307.928 50.1034Z"
        fill="#011C22" />
    <path
        d="M288.368 25.7482V37.5203H275.842V69.4153C275.842 73.7646 277.35 75.2144 282.105 75.2144H288.368V86.9865H279.554C267.028 86.9865 261.229 82.0573 261.229 71.5609V9.04688H275.842V25.7482H288.368Z"
        fill="#011C22" />
    <path
        d="M218.022 87.9732C205.844 87.9732 196.855 81.8261 196.855 69.5901C196.855 55.6723 208.28 52.2508 220.922 50.9171C232.288 49.6413 236.173 49.4673 236.173 45.2919V44.828C236.173 39.6088 231.998 35.8974 224.981 35.8974C217.848 35.8974 213.093 39.6088 212.687 44.77H198.595C199.291 32.592 209.265 24.5312 225.271 24.5312C241.218 24.5312 250.671 32.476 250.671 45.234V86.9873H236.289V78.3467H236.057C233.158 83.7978 227.997 87.9732 218.022 87.9732ZM221.618 77.1289C231.186 77.1289 236.231 71.4458 236.231 64.3129V57.702C234.434 58.8618 228.75 59.7896 222.719 60.7175C216.456 61.6453 211.121 63.907 211.121 69.4741C211.121 74.2873 215.239 77.1289 221.618 77.1289Z"
        fill="#011C22" />
    <path
        d="M157.13 86.9883L134.107 25.75H149.591L160.783 57.6449C162.349 62.4582 163.857 67.3294 165.364 72.1426C166.814 67.3294 168.264 62.4582 169.83 57.6449L180.848 25.75H196.158L173.135 86.9883H157.13Z"
        fill="#011C22" />
    <path
        d="M112.922 86.9862V25.7479H127.536V86.9862H112.922ZM120.229 16.6434C115.242 16.6434 111.473 13.0479 111.473 8.29268C111.473 3.59543 115.242 0 120.229 0C125.216 0 128.986 3.59543 128.986 8.29268C128.986 13.0479 125.216 16.6434 120.229 16.6434Z"
        fill="#011C22" />
    <path
        d="M71.2266 86.9861V25.7479H85.3183V35.8963H85.4923C87.7539 28.8794 92.4512 25.168 100.338 25.168C102.31 25.168 103.933 25.284 105.093 25.3999V38.3899C103.991 38.2159 101.092 37.9259 98.1923 37.9259C91.2334 37.9259 85.8402 42.7392 85.8402 52.3077V86.9861H71.2266Z"
        fill="#011C22" />
    <path
        d="M0 86.9844V0.578125H32.9967C51.9597 0.578125 63.8478 11.2484 63.8478 28.1817C63.8478 45.173 51.6698 55.9013 32.7068 55.9013H15.3096V86.9844H0ZM15.3096 42.7954H32.1269C42.4492 42.7954 48.7702 37.2283 48.7702 28.1817C48.7702 19.1932 42.4492 13.684 32.1269 13.684H15.3096V42.7954Z"
        fill="#011C22" />
    <path
        d="M489.996 36.6299H529.928C539.352 36.6301 545.402 44.1935 545.402 56.5264C545.402 68.8008 539.41 76.3025 529.928 76.3027L489.901 76.3037C480.474 76.2537 474.523 68.7599 474.522 56.5264C474.522 44.1935 480.572 36.6301 489.996 36.6299ZM560.237 56.5264C560.237 37.4452 548.02 24.3556 529.928 24.3555L489.901 24.3564C471.861 24.4022 459.688 37.4786 459.688 56.5264C459.688 75.6073 471.904 88.577 489.996 88.5771H529.928C548.02 88.577 560.237 75.6073 560.237 56.5264Z"
        fill="#011C22" />
</svg>
