<svg width="275" height="176" viewBox="0 0 275 176" fill="none" xmlns="http://www.w3.org/2000/svg">
    <path
        d="M191.514 0C240.844 0 274.155 35.6898 274.155 87.716C274.155 139.742 240.844 175.112 191.514 175.112V175.104H82.6409V175.112C33.3115 175.112 0.000460106 139.742 0 87.716C0 35.7802 33.1939 0.123709 82.3824 0H191.514ZM82.6409 33.4686C56.9451 33.4686 40.4463 54.0893 40.4463 87.716C40.4467 121.072 56.6769 141.504 82.3824 141.639H191.514C217.368 141.639 233.708 121.183 233.709 87.716C233.709 54.0893 217.21 33.4647 191.514 33.4647L82.6409 33.4686Z"
        fill="#011C22" />
</svg>
