<svg width="90" height="90" viewBox="0 0 90 90" fill="none" xmlns="http://www.w3.org/2000/svg">
<path d="M19.5 9.75C19.5 15.1348 15.1348 19.5 9.75 19.5C4.36522 19.5 0 15.1348 0 9.75C0 4.36522 4.36522 0 9.75 0C15.1348 0 19.5 4.36522 19.5 9.75Z" fill="#7A49F6"/>
<path d="M23.9996 32.9999H41.9996V89.9999H23.9996V32.9999Z" fill="black"/>
<path fill-rule="evenodd" clip-rule="evenodd" d="M56.9996 48C65.2839 48 71.9996 41.2843 71.9996 33C71.9996 24.7157 65.2839 18 56.9996 18C48.7154 18 41.9996 24.7157 41.9996 33C41.9996 41.2843 48.7154 48 56.9996 48ZM56.9996 66C75.225 66 89.9996 51.2254 89.9996 33C89.9996 14.7746 75.225 0 56.9996 0C38.7742 0 23.9996 14.7746 23.9996 33C23.9996 51.2254 38.7742 66 56.9996 66Z" fill="black"/>
</svg>
