<svg width="24" height="24" viewBox="0 0 24 24" fill="none" xmlns="http://www.w3.org/2000/svg">
<circle cx="12" cy="12" r="12" fill="white"/>
<path d="M8.03336 6.51668C8.03336 7.35432 7.35432 8.03336 6.51668 8.03336C5.67904 8.03336 5 7.35432 5 6.51668C5 5.67904 5.67904 5 6.51668 5C7.35432 5 8.03336 5.67904 8.03336 6.51668Z" fill="#6225fdff"/>
<path d="M8.73364 10.1333H11.5337V19H8.73364V10.1333Z" fill="#6225fdff"/>
<path fill-rule="evenodd" clip-rule="evenodd" d="M13.867 12.4667C15.1557 12.4667 16.2004 11.4221 16.2004 10.1334C16.2004 8.8447 15.1557 7.80002 13.867 7.80002C12.5783 7.80002 11.5337 8.8447 11.5337 10.1334C11.5337 11.4221 12.5783 12.4667 13.867 12.4667ZM13.867 15.2668C16.7021 15.2668 19.0004 12.9685 19.0004 10.1334C19.0004 7.29829 16.7021 5 13.867 5C11.0319 5 8.73364 7.29829 8.73364 10.1334C8.73364 12.9685 11.0319 15.2668 13.867 15.2668Z" fill="#6225fdff"/>
</svg>
