<svg width="23" height="14" viewBox="0 0 23 14" fill="none" xmlns="http://www.w3.org/2000/svg">
<path fill-rule="evenodd" clip-rule="evenodd" d="M0 0.890909C0 0.398874 0.398874 0 0.890909 0L22.0182 0C22.5102 0 22.9091 0.398874 22.9091 0.890909C22.9091 1.38294 22.5102 1.78182 22.0182 1.78182L0.890909 1.78182C0.398874 1.78182 0 1.38294 0 0.890909Z" fill="black"/>
<path fill-rule="evenodd" clip-rule="evenodd" d="M0 6.9998C0 6.50776 0.398874 6.10889 0.890909 6.10889L22.0182 6.10889C22.5102 6.10889 22.9091 6.50776 22.9091 6.9998C22.9091 7.49183 22.5102 7.89071 22.0182 7.89071L0.890909 7.89071C0.398874 7.89071 0 7.49183 0 6.9998Z" fill="black"/>
<path fill-rule="evenodd" clip-rule="evenodd" d="M0 13.1092C0 12.6171 0.398874 12.2183 0.890909 12.2183L22.0182 12.2183C22.5102 12.2183 22.9091 12.6171 22.9091 13.1092C22.9091 13.6012 22.5102 14.0001 22.0182 14.0001L0.890909 14.0001C0.398874 14.0001 0 13.6012 0 13.1092Z" fill="black"/>
</svg>
