<svg width="13" height="13" viewBox="0 0 13 13" fill="none" xmlns="http://www.w3.org/2000/svg">
<path fill-rule="evenodd" clip-rule="evenodd" d="M0.149738 0.149738C0.349388 -0.0499125 0.673084 -0.0499125 0.872734 0.149738L12.8503 12.1273C13.0499 12.3269 13.0499 12.6506 12.8503 12.8503C12.6506 13.0499 12.3269 13.0499 12.1273 12.8503L0.149738 0.872734C-0.0499125 0.673084 -0.0499125 0.349388 0.149738 0.149738Z" fill="#4D4D4D"/>
<path fill-rule="evenodd" clip-rule="evenodd" d="M0.149738 12.8503C0.349388 13.0499 0.673084 13.0499 0.872734 12.8503L12.8503 0.872735C13.0499 0.673085 13.0499 0.349388 12.8503 0.149737C12.6506 -0.0499115 12.3269 -0.0499115 12.1273 0.149737L0.149738 12.1273C-0.0499125 12.3269 -0.0499125 12.6506 0.149738 12.8503Z" fill="#4D4D4D"/>
</svg>
