<svg width="11" height="14" viewBox="0 0 11 14" fill="none" xmlns="http://www.w3.org/2000/svg">
<g clip-path="url(#clip0_0_540)">
<path fill-rule="evenodd" clip-rule="evenodd" d="M9.8 12.9111V4.49548L6.39341 1.08889H1.08889V12.9111H9.8ZM7.07226 0.227806L10.6611 3.81663C10.8069 3.9625 10.8889 4.16033 10.8889 4.36662V13.2222C10.8889 13.6518 10.5407 14 10.1111 14H0.777778C0.348224 14 0 13.6518 0 13.2222V0.777778C0 0.348224 0.348224 0 0.777778 0H6.52227C6.72856 0 6.92639 0.0819442 7.07226 0.227806Z" fill="#E3E3E3"/>
<path fill-rule="evenodd" clip-rule="evenodd" d="M10.4223 4.89999H5.83337V0.311096H6.92226V3.8111H10.4223V4.89999Z" fill="#E3E3E3"/>
<path fill-rule="evenodd" clip-rule="evenodd" d="M2.33325 6.76667C2.33325 6.46598 2.53224 6.22223 2.77769 6.22223H8.11104C8.35649 6.22223 8.55547 6.46598 8.55547 6.76667C8.55547 7.06736 8.35649 7.31112 8.11104 7.31112H2.77769C2.53224 7.31112 2.33325 7.06736 2.33325 6.76667Z" fill="#E3E3E3"/>
<path fill-rule="evenodd" clip-rule="evenodd" d="M2.33325 8.94447C2.33325 8.64378 2.53224 8.40002 2.77769 8.40002H8.11104C8.35649 8.40002 8.55547 8.64378 8.55547 8.94447C8.55547 9.24516 8.35649 9.48891 8.11104 9.48891H2.77769C2.53224 9.48891 2.33325 9.24516 2.33325 8.94447Z" fill="#E3E3E3"/>
<path fill-rule="evenodd" clip-rule="evenodd" d="M2.33325 11.1222C2.33325 10.8215 2.5596 10.5778 2.83881 10.5778H5.87214C6.15135 10.5778 6.3777 10.8215 6.3777 11.1222C6.3777 11.4229 6.15135 11.6666 5.87214 11.6666H2.83881C2.5596 11.6666 2.33325 11.4229 2.33325 11.1222Z" fill="#E3E3E3"/>
</g>
<defs>
<clipPath id="clip0_0_540">
<rect width="10.8889" height="14" fill="white"/>
</clipPath>
</defs>
</svg>
