<svg width="13" height="13" viewBox="0 0 13 13" fill="none" xmlns="http://www.w3.org/2000/svg">
<path fill-rule="evenodd" clip-rule="evenodd" d="M0 1.87776C0 1.35923 0.420355 0.938873 0.938889 0.938873H6.93333C7.21254 0.938873 7.43889 1.16522 7.43889 1.44443C7.43889 1.72364 7.21254 1.94998 6.93333 1.94998H1.01111V11.9889H10.1833V7.00554C10.1833 6.72633 10.4097 6.49998 10.6889 6.49998C10.9681 6.49998 11.1944 6.72633 11.1944 7.00554V12.0611C11.1944 12.5796 10.7741 13 10.2556 13H0.938889C0.420355 13 0 12.5796 0 12.0611V1.87776Z" fill="#CCCCCC"/>
<path fill-rule="evenodd" clip-rule="evenodd" d="M9.78844 0.556895C10.5203 -0.18284 11.7143 -0.186033 12.4501 0.549778C13.1859 1.28559 13.1827 2.47955 12.443 3.21142L6.6727 8.9203C6.60286 8.9894 6.52082 9.04494 6.43072 9.08411L3.3262 10.4339C2.84519 10.643 2.35682 10.1547 2.56596 9.67367L3.91575 6.56914C3.95493 6.47905 4.01047 6.397 4.07956 6.32716L9.78844 0.556895ZM11.7351 1.26474C11.3957 0.925288 10.8449 0.926761 10.5072 1.26802L4.82685 7.00947L3.93182 9.06804L5.99039 8.17301L11.7318 2.49264C12.0731 2.15501 12.0746 1.6042 11.7351 1.26474Z" fill="#CCCCCC"/>
</svg>
