<svg width="14" height="14" viewBox="0 0 14 14" fill="none" xmlns="http://www.w3.org/2000/svg">
<path fill-rule="evenodd" clip-rule="evenodd" d="M10.1889 2.17778C10.1889 2.77916 9.70138 3.26667 9.1 3.26667C8.49862 3.26667 8.01111 2.77916 8.01111 2.17778C8.01111 1.5764 8.49862 1.08889 9.1 1.08889C9.70138 1.08889 10.1889 1.5764 10.1889 2.17778ZM11.2092 2.72222C10.9674 3.66151 10.1148 4.35556 9.1 4.35556C8.08525 4.35556 7.23259 3.66151 6.99084 2.72222H0.544444C0.243756 2.72222 0 2.47847 0 2.17778C0 1.87709 0.243756 1.63333 0.544444 1.63333H6.99084C7.23259 0.694042 8.08525 0 9.1 0C10.1148 0 10.9674 0.694042 11.2092 1.63333H13.4556C13.7562 1.63333 14 1.87709 14 2.17778C14 2.47847 13.7562 2.72222 13.4556 2.72222H11.2092ZM4.97778 8.08889C5.57916 8.08889 6.06667 7.60138 6.06667 7C6.06667 6.39862 5.57916 5.91111 4.97778 5.91111C4.3764 5.91111 3.88889 6.39862 3.88889 7C3.88889 7.60138 4.3764 8.08889 4.97778 8.08889ZM7.08694 7.54444C6.84519 8.48374 5.99253 9.17778 4.97778 9.17778C3.96301 9.17778 3.11036 8.48374 2.86862 7.54444H0.544444C0.243756 7.54444 0 7.30069 0 7C0 6.69931 0.243756 6.45556 0.544444 6.45556H2.86862C3.11036 5.51626 3.96301 4.82222 4.97778 4.82222C5.99253 4.82222 6.84519 5.51626 7.08694 6.45556H13.4556C13.7562 6.45556 14 6.69931 14 7C14 7.30069 13.7562 7.54444 13.4556 7.54444H7.08694ZM10.1889 11.8222C10.1889 12.4236 9.70138 12.9111 9.1 12.9111C8.49862 12.9111 8.01111 12.4236 8.01111 11.8222C8.01111 11.2208 8.49862 10.7333 9.1 10.7333C9.70138 10.7333 10.1889 11.2208 10.1889 11.8222ZM9.1 14C10.1148 14 10.9674 13.306 11.2092 12.3667H13.4556C13.7562 12.3667 14 12.1229 14 11.8222C14 11.5215 13.7562 11.2778 13.4556 11.2778H11.2092C10.9674 10.3385 10.1148 9.64444 9.1 9.64444C8.08525 9.64444 7.23259 10.3385 6.99084 11.2778H0.544444C0.243756 11.2778 0 11.5215 0 11.8222C0 12.1229 0.243756 12.3667 0.544444 12.3667H6.99084C7.23259 13.306 8.08525 14 9.1 14Z" fill="#4D4D4D"/>
</svg>
