<svg width="60" height="60" viewBox="0 0 60 60" fill="none" xmlns="http://www.w3.org/2000/svg">
<path d="M13 6.5C13 10.0899 10.0899 13 6.5 13C2.91015 13 0 10.0899 0 6.5C0 2.91015 2.91015 0 6.5 0C10.0899 0 13 2.91015 13 6.5Z" fill="#7A49F6"/>
<path d="M16 22H28V60H16V22Z" fill="black"/>
<path fill-rule="evenodd" clip-rule="evenodd" d="M38 32C43.5228 32 48 27.5228 48 22C48 16.4772 43.5228 12 38 12C32.4772 12 28 16.4772 28 22C28 27.5228 32.4772 32 38 32ZM38 44C50.1503 44 60 34.1503 60 22C60 9.84974 50.1503 0 38 0C25.8497 0 16 9.84974 16 22C16 34.1503 25.8497 44 38 44Z" fill="black"/>
</svg>
