<svg width="180" height="22" viewBox="0 0 180 22" fill="none" xmlns="http://www.w3.org/2000/svg">
<path d="M4.64738 2.32369C4.64738 3.60704 3.60704 4.64738 2.32369 4.64738C1.04035 4.64738 0 3.60704 0 2.32369C0 1.04035 1.04035 0 2.32369 0C3.60704 0 4.64738 1.04035 4.64738 2.32369Z" fill="white"/>
<path d="M39.503 2.32369C39.503 3.60704 38.4627 4.64738 37.1793 4.64738C35.8959 4.64738 34.8557 3.60704 34.8557 2.32369C34.8557 1.04035 35.8959 0 37.1793 0C38.4627 0 39.503 1.04035 39.503 2.32369Z" fill="white"/>
<path d="M5.71991 7.86462H10.0098V21.4493H5.71991V7.86462Z" fill="white"/>
<path fill-rule="evenodd" clip-rule="evenodd" d="M13.5847 11.4397C15.559 11.4397 17.1596 9.83914 17.1596 7.86479C17.1596 5.89044 15.559 4.28989 13.5847 4.28989C11.6104 4.28989 10.0098 5.89044 10.0098 7.86479C10.0098 9.83914 11.6104 11.4397 13.5847 11.4397ZM13.5847 15.7296C17.9283 15.7296 21.4495 12.2084 21.4495 7.86479C21.4495 3.52119 17.9283 0 13.5847 0C9.24108 0 5.71991 3.52119 5.71991 7.86479C5.71991 12.2084 9.24108 15.7296 13.5847 15.7296Z" fill="white"/>
<path d="M172.841 21.7541C171.236 21.7541 169.854 21.4291 168.697 20.7792C167.546 20.1224 166.659 19.1948 166.036 17.9964C165.413 16.7912 165.102 15.366 165.102 13.7207C165.102 12.1161 165.413 10.7078 166.036 9.49586C166.659 8.2839 167.536 7.33941 168.667 6.66232C169.804 5.98527 171.138 5.64673 172.668 5.64673C173.697 5.64673 174.655 5.8126 175.542 6.14439C176.436 6.46935 177.214 6.96022 177.878 7.617C178.548 8.27375 179.07 9.09976 179.442 10.0951C179.814 11.0836 180 12.2414 180 13.5684V14.7567H169.377V12.0755H175.928C175.928 11.4526 175.792 10.9008 175.522 10.42C175.251 9.93933 174.875 9.56354 174.394 9.29274C173.921 9.01515 173.369 8.87633 172.739 8.87633C172.082 8.87633 171.5 9.02866 170.992 9.33335C170.491 9.63125 170.098 10.0341 169.814 10.5419C169.53 11.0429 169.384 11.6015 169.377 12.2177V14.7668C169.377 15.5387 169.52 16.2056 169.804 16.7675C170.095 17.3295 170.505 17.7628 171.033 18.0675C171.561 18.3722 172.187 18.5245 172.912 18.5245C173.392 18.5245 173.832 18.4568 174.232 18.3214C174.631 18.186 174.973 17.9829 175.258 17.712C175.542 17.4412 175.759 17.1094 175.908 16.7167L179.909 16.9808C179.706 17.9422 179.289 18.7818 178.66 19.4995C178.037 20.2104 177.231 20.7656 176.243 21.1651C175.261 21.5578 174.127 21.7541 172.841 21.7541Z" fill="white"/>
<path d="M153.297 21.7035C152.112 21.7035 151.039 21.3988 150.077 20.7895C149.123 20.1733 148.365 19.2694 147.803 18.0778C147.248 16.8794 146.97 15.4102 146.97 13.6701C146.97 11.8827 147.258 10.3965 147.833 9.21163C148.409 8.02 149.174 7.12967 150.128 6.5406C151.09 5.94481 152.143 5.64688 153.287 5.64688C154.16 5.64688 154.888 5.79584 155.471 6.09374C156.059 6.38488 156.533 6.75052 156.892 7.19059C157.258 7.6239 157.535 8.05046 157.725 8.47026H157.857V0.650146H162.174V21.4496H157.908V18.9512H157.725C157.522 19.3846 157.234 19.8145 156.862 20.241C156.496 20.6608 156.019 21.0095 155.43 21.2871C154.847 21.5647 154.137 21.7035 153.297 21.7035ZM154.668 18.2606C155.365 18.2606 155.955 18.071 156.435 17.6919C156.923 17.306 157.295 16.7677 157.552 16.0771C157.816 15.3865 157.948 14.5774 157.948 13.6498C157.948 12.7222 157.82 11.9165 157.563 11.2327C157.305 10.5489 156.933 10.0207 156.445 9.64834C155.958 9.27594 155.365 9.08976 154.668 9.08976C153.957 9.08976 153.358 9.28273 152.871 9.66864C152.383 10.0546 152.014 10.5895 151.763 11.2733C151.513 11.9571 151.388 12.7493 151.388 13.6498C151.388 14.5571 151.513 15.3594 151.763 16.0568C152.021 16.7474 152.39 17.289 152.871 17.6817C153.358 18.0677 153.957 18.2606 154.668 18.2606Z" fill="white"/>
<path d="M137.058 21.7541C135.481 21.7541 134.116 21.419 132.966 20.7487C131.821 20.0716 130.938 19.1305 130.315 17.9253C129.692 16.7133 129.38 15.3084 129.38 13.7106C129.38 12.0992 129.692 10.6909 130.315 9.48568C130.938 8.27375 131.821 7.33262 132.966 6.66232C134.116 5.98527 135.481 5.64673 137.058 5.64673C138.636 5.64673 139.997 5.98527 141.141 6.66232C142.292 7.33262 143.179 8.27375 143.802 9.48568C144.425 10.6909 144.736 12.0992 144.736 13.7106C144.736 15.3084 144.425 16.7133 143.802 17.9253C143.179 19.1305 142.292 20.0716 141.141 20.7487C139.997 21.419 138.636 21.7541 137.058 21.7541ZM137.078 18.4026C137.796 18.4026 138.395 18.1995 138.876 17.7933C139.357 17.3803 139.719 16.8183 139.963 16.1074C140.213 15.3965 140.339 14.5874 140.339 13.6801C140.339 12.7728 140.213 11.9638 139.963 11.2528C139.719 10.5419 139.357 9.97994 138.876 9.56693C138.395 9.15392 137.796 8.94744 137.078 8.94744C136.354 8.94744 135.745 9.15392 135.251 9.56693C134.763 9.97994 134.394 10.5419 134.143 11.2528C133.9 11.9638 133.778 12.7728 133.778 13.6801C133.778 14.5874 133.9 15.3965 134.143 16.1074C134.394 16.8183 134.763 17.3803 135.251 17.7933C135.745 18.1995 136.354 18.4026 137.078 18.4026Z" fill="white"/>
<path d="M103.924 21.4495V5.84985H108.048V8.60214H108.23C108.555 7.68807 109.097 6.96701 109.855 6.43889C110.614 5.91077 111.521 5.64673 112.577 5.64673C113.647 5.64673 114.558 5.91417 115.309 6.44904C116.061 6.97716 116.562 7.69486 116.812 8.60214H116.975C117.293 7.70841 117.868 6.99407 118.701 6.4592C119.541 5.91756 120.533 5.64673 121.677 5.64673C123.133 5.64673 124.314 6.11054 125.221 7.03812C126.135 7.95891 126.593 9.26564 126.593 10.9583V21.4495H122.276V11.8114C122.276 10.9448 122.046 10.2948 121.586 9.86147C121.125 9.42816 120.55 9.21148 119.859 9.21148C119.074 9.21148 118.461 9.46201 118.021 9.96303C117.581 10.4573 117.361 11.1106 117.361 11.9231V21.4495H113.166V11.72C113.166 10.9549 112.946 10.3455 112.506 9.89193C112.073 9.43831 111.501 9.21148 110.79 9.21148C110.309 9.21148 109.876 9.33335 109.49 9.57709C109.111 9.81407 108.809 10.1492 108.586 10.5825C108.362 11.0091 108.251 11.5101 108.251 12.0856V21.4495H103.924Z" fill="white"/>
<path d="M93.9412 21.7541C92.3364 21.7541 90.9551 21.4291 89.7975 20.7792C88.6464 20.1224 87.7595 19.1948 87.1367 17.9964C86.5136 16.7912 86.2022 15.366 86.2022 13.7207C86.2022 12.1161 86.5136 10.7078 87.1367 9.49586C87.7595 8.2839 88.6364 7.33941 89.7668 6.66232C90.9043 5.98527 92.2381 5.64673 93.7685 5.64673C94.7974 5.64673 95.7555 5.8126 96.6424 6.14439C97.5361 6.46935 98.3147 6.96022 98.9786 7.617C99.6489 8.27375 100.17 9.09976 100.543 10.0951C100.915 11.0836 101.101 12.2414 101.101 13.5684V14.7567H90.4778V12.0755H97.0285C97.0285 11.4526 96.893 10.9008 96.6224 10.42C96.3514 9.93933 95.9757 9.56354 95.4948 9.29274C95.0208 9.01515 94.4692 8.87633 93.8397 8.87633C93.1826 8.87633 92.6006 9.02866 92.0926 9.33335C91.5918 9.63125 91.1989 10.0341 90.9147 10.5419C90.6301 11.0429 90.4846 11.6015 90.4778 12.2177V14.7668C90.4778 15.5387 90.6201 16.2056 90.9043 16.7675C91.1957 17.3295 91.605 17.7628 92.1334 18.0675C92.6614 18.3722 93.2877 18.5245 94.012 18.5245C94.4928 18.5245 94.9329 18.4568 95.3325 18.3214C95.7319 18.186 96.0736 17.9829 96.3582 17.712C96.6424 17.4412 96.859 17.1094 97.0081 16.7167L101.009 16.9808C100.806 17.9422 100.39 18.7818 99.7604 19.4995C99.1377 20.2104 98.3319 20.7656 97.3434 21.1651C96.3614 21.5578 95.2274 21.7541 93.9412 21.7541Z" fill="white"/>
<path d="M84.1812 5.84982V9.09973H74.787V5.84982H84.1812ZM76.9198 2.11243H81.2462V16.6558C81.2462 17.0552 81.3069 17.3667 81.4288 17.5901C81.5507 17.8068 81.7202 17.9591 81.9368 18.0471C82.1603 18.1352 82.4173 18.1792 82.7086 18.1792C82.9117 18.1792 83.1148 18.1623 83.3178 18.1284C83.5212 18.0878 83.6767 18.0573 83.7851 18.037L84.4657 21.2564C84.2491 21.3241 83.9441 21.402 83.5516 21.49C83.1587 21.5848 82.6815 21.6424 82.1195 21.6627C81.0767 21.7033 80.163 21.5645 79.3775 21.2463C78.5989 20.9281 77.993 20.4338 77.5594 19.7635C77.1261 19.0932 76.913 18.2469 76.9198 17.2245V2.11243Z" fill="white"/>
<path d="M63.7412 21.744C62.7459 21.744 61.859 21.5713 61.0804 21.226C60.3018 20.8739 59.6855 20.356 59.2318 19.6722C58.785 18.9815 58.5615 18.1216 58.5615 17.0925C58.5615 16.2259 58.721 15.498 59.0391 14.909C59.3573 14.3199 59.7906 13.846 60.339 13.4871C60.8874 13.1283 61.5105 12.8575 62.2076 12.6747C62.9118 12.4918 63.6497 12.3632 64.4215 12.2888C65.3288 12.194 66.0602 12.1059 66.6154 12.0247C67.1706 11.9367 67.5735 11.808 67.8241 11.6388C68.0743 11.4695 68.1998 11.219 68.1998 10.8872V10.8263C68.1998 10.1831 67.9964 9.68544 67.5903 9.33335C67.191 8.98129 66.6222 8.80523 65.884 8.80523C65.1054 8.80523 64.4859 8.9779 64.0258 9.3232C63.5653 9.66174 63.2604 10.0883 63.1117 10.6028L59.1103 10.2779C59.3133 9.32995 59.7126 8.51073 60.3086 7.82013C60.9042 7.12274 61.6728 6.58786 62.614 6.21546C63.5617 5.83631 64.6585 5.64673 65.9044 5.64673C66.7709 5.64673 67.6007 5.74829 68.3925 5.95142C69.1915 6.15454 69.899 6.46935 70.5153 6.89591C71.138 7.32246 71.6289 7.87089 71.9878 8.54119C72.3467 9.20472 72.5262 10.0002 72.5262 10.9278V21.4495H68.4233V19.2862H68.3013C68.0507 19.7737 67.7154 20.2036 67.2957 20.576C66.876 20.9416 66.3716 21.2294 65.7825 21.4393C65.1937 21.6424 64.513 21.744 63.7412 21.744ZM64.9803 18.7581C65.6166 18.7581 66.1786 18.6329 66.6662 18.3823C67.1538 18.125 67.5363 17.7797 67.8137 17.3464C68.0915 16.9131 68.2302 16.4222 68.2302 15.8738V14.2184C68.0947 14.3064 67.9085 14.3877 67.6715 14.4621C67.4412 14.5298 67.1806 14.5941 66.8896 14.6551C66.5983 14.7093 66.3073 14.76 66.0163 14.8074C65.7249 14.848 65.4611 14.8853 65.2241 14.9191C64.7161 14.9936 64.2728 15.1121 63.8935 15.2746C63.5146 15.4371 63.22 15.6571 63.0101 15.9347C62.7999 16.2056 62.6952 16.5441 62.6952 16.9503C62.6952 17.5394 62.9086 17.9896 63.3351 18.3011C63.7684 18.6058 64.3168 18.7581 64.9803 18.7581Z" fill="white"/>
<path d="M57.4989 5.84998L52.045 21.4495H47.1703L41.7164 5.84998H46.2866L49.5261 17.0114H49.6888L52.9184 5.84998H57.4989Z" fill="white"/>
<path d="M23.4606 21.4496V5.85002H27.655V8.57181H27.8175C28.1019 7.60362 28.5792 6.87237 29.2495 6.3781C29.9198 5.87708 30.6917 5.62659 31.5651 5.62659C31.7818 5.62659 32.0153 5.6401 32.2658 5.6672C32.5164 5.6943 32.7364 5.73151 32.926 5.77891V9.61786C32.7229 9.55694 32.4419 9.50278 32.083 9.45538C31.7242 9.40798 31.3958 9.38428 31.0979 9.38428C30.4615 9.38428 29.8927 9.52309 29.3917 9.80068C28.8975 10.0715 28.5047 10.4507 28.2136 10.9381C27.9293 11.4257 27.7871 11.9876 27.7871 12.624V21.4496H23.4606Z" fill="white"/>
<path d="M35.0341 5.71997H39.324V21.4495H35.0341V5.71997Z" fill="white"/>
</svg>
