<svg width="24" height="24" viewBox="0 0 24 24" fill="none" xmlns="http://www.w3.org/2000/svg">
<circle cx="12" cy="12" r="12" fill="white"/>
<path d="M8.03336 6.51668C8.03336 7.35432 7.35432 8.03336 6.51668 8.03336C5.67904 8.03336 5 7.35432 5 6.51668C5 5.67904 5.67904 5 6.51668 5C7.35432 5 8.03336 5.67904 8.03336 6.51668Z" fill="#7A49F6"/>
<path d="M8.73373 10.1332H11.5338V18.9999H8.73373V10.1332Z" fill="#7A49F6"/>
<path fill-rule="evenodd" clip-rule="evenodd" d="M13.8671 12.4667C15.1558 12.4667 16.2005 11.4221 16.2005 10.1334C16.2005 8.8447 15.1558 7.80002 13.8671 7.80002C12.5784 7.80002 11.5338 8.8447 11.5338 10.1334C11.5338 11.4221 12.5784 12.4667 13.8671 12.4667ZM13.8671 15.2668C16.7022 15.2668 19.0005 12.9685 19.0005 10.1334C19.0005 7.29829 16.7022 5 13.8671 5C11.032 5 8.73373 7.29829 8.73373 10.1334C8.73373 12.9685 11.032 15.2668 13.8671 15.2668Z" fill="#7A49F6"/>
</svg>
