<svg width="12" height="18" viewBox="0 0 12 18" fill="none" xmlns="http://www.w3.org/2000/svg">
<g clip-path="url(#clip0_0_565)">
<path fill-rule="evenodd" clip-rule="evenodd" d="M7.59998 9.6V3.2C7.59998 2.20589 6.79409 1.4 5.79998 1.4C4.80586 1.4 3.99998 2.20589 3.99998 3.2V9.6C3.99998 10.5941 4.80586 11.4 5.79998 11.4C6.79409 11.4 7.59998 10.5941 7.59998 9.6ZM5.79998 0C4.03266 0 2.59998 1.43269 2.59998 3.2V9.6C2.59998 11.3673 4.03266 12.8 5.79998 12.8C7.56729 12.8 8.99998 11.3673 8.99998 9.6V3.2C8.99998 1.43269 7.56729 0 5.79998 0Z" fill="#4D4D4D"/>
<path fill-rule="evenodd" clip-rule="evenodd" d="M0.712281 8.30005C1.10566 8.30005 1.42456 8.61345 1.42456 9.00005C1.42456 9.02724 1.42479 9.10475 1.42524 9.18285C1.42547 9.22178 1.42575 9.26005 1.42609 9.29174C1.42625 9.30761 1.42642 9.32127 1.4266 9.33224L1.42684 9.34566L1.42694 9.34977L1.42697 9.35094C1.50516 11.7909 3.45763 13.7 5.8 13.7C8.14237 13.7 10.0948 11.7913 10.173 9.35135L10.1731 9.34977L10.1732 9.34566L10.1734 9.33224C10.1736 9.32127 10.1737 9.30761 10.1739 9.29174C10.1742 9.26005 10.1745 9.22178 10.1748 9.18285C10.1752 9.10475 10.1754 9.02724 10.1754 9.00005C10.1754 8.61345 10.4943 8.30005 10.8877 8.30005C11.2811 8.30005 11.6 8.61345 11.6 9.00005C11.6 9.05314 11.5992 9.32417 11.5969 9.39542C11.4961 12.5387 8.96386 15.1 5.8 15.1C2.63613 15.1 0.103852 12.5387 0.00312621 9.39542C0.000843137 9.32417 0 9.05314 0 9.00005C0 8.61345 0.318899 8.30005 0.712281 8.30005Z" fill="#4D4D4D"/>
<path fill-rule="evenodd" clip-rule="evenodd" d="M5 17.6V14.4H6.4V17.6H5Z" fill="#4D4D4D"/>
<path fill-rule="evenodd" clip-rule="evenodd" d="M3 17.3C3 16.9134 3.3134 16.6 3.7 16.6H8.1C8.4866 16.6 8.8 16.9134 8.8 17.3C8.8 17.6866 8.4866 18 8.1 18H3.7C3.3134 18 3 17.6866 3 17.3Z" fill="#4D4D4D"/>
</g>
<defs>
<clipPath id="clip0_0_565">
<rect width="12" height="18" fill="white"/>
</clipPath>
</defs>
</svg>
