<svg width="504" height="61" viewBox="0 0 504 61" fill="none" xmlns="http://www.w3.org/2000/svg">
<path d="M13 6.5C13 10.0899 10.0899 13 6.5 13C2.91015 13 0 10.0899 0 6.5C0 2.91015 2.91015 0 6.5 0C10.0899 0 13 2.91015 13 6.5Z" fill="#7A49F6"/>
<path d="M110.5 6.5C110.5 10.0899 107.59 13 104 13C100.41 13 97.5 10.0899 97.5 6.5C97.5 2.91015 100.41 0 104 0C107.59 0 110.5 2.91015 110.5 6.5Z" fill="black"/>
<path d="M16 22H28V60H16V22Z" fill="black"/>
<path fill-rule="evenodd" clip-rule="evenodd" d="M38 32C43.5228 32 48 27.5228 48 22C48 16.4772 43.5228 12 38 12C32.4772 12 28 16.4772 28 22C28 27.5228 32.4772 32 38 32ZM38 44C50.1503 44 60 34.1503 60 22C60 9.84974 50.1503 0 38 0C25.8497 0 16 9.84974 16 22C16 34.1503 25.8497 44 38 44Z" fill="black"/>
<path d="M483.482 60.8522C478.993 60.8522 475.129 59.9431 471.891 58.125C468.671 56.2878 466.19 53.6931 464.448 50.3409C462.705 46.9697 461.834 42.9829 461.834 38.3806C461.834 33.892 462.705 29.9526 464.448 26.5625C466.19 23.1723 468.643 20.5303 471.806 18.6363C474.987 16.7424 478.718 15.7954 482.999 15.7954C485.878 15.7954 488.557 16.2594 491.039 17.1875C493.539 18.0965 495.717 19.4696 497.573 21.3068C499.448 23.1439 500.906 25.4545 501.948 28.2386C502.989 31.0037 503.51 34.2424 503.51 37.9545V41.2784H466.664V33.7784H492.118C492.118 32.0359 491.739 30.4924 490.982 29.1477C490.224 27.803 489.173 26.7518 487.828 25.9943C486.503 25.2178 484.959 24.8295 483.198 24.8295C481.361 24.8295 479.732 25.2556 478.311 26.1079C476.91 26.9412 475.811 28.0681 475.016 29.4886C474.22 30.8901 473.813 32.4526 473.794 34.1761V41.3068C473.794 43.4659 474.192 45.3314 474.987 46.9034C475.802 48.4753 476.948 49.6875 478.425 50.5397C479.902 51.392 481.654 51.8181 483.681 51.8181C485.025 51.8181 486.256 51.6287 487.374 51.25C488.491 50.8712 489.448 50.303 490.243 49.5454C491.039 48.7878 491.645 47.8598 492.061 46.7613L503.254 47.5C502.686 50.1893 501.521 52.5378 499.76 54.5454C498.018 56.534 495.764 58.0871 492.999 59.2045C490.253 60.303 487.08 60.8522 483.482 60.8522Z" fill="black"/>
<path d="M428.815 60.7104C425.501 60.7104 422.499 59.8581 419.809 58.1536C417.139 56.4301 415.018 53.9017 413.446 50.5684C411.893 47.2161 411.116 43.1062 411.116 38.2388C411.116 33.2388 411.921 29.0816 413.531 25.7672C415.141 22.4339 417.281 19.9434 419.951 18.2956C422.641 16.629 425.586 15.7956 428.787 15.7956C431.23 15.7956 433.266 16.2123 434.895 17.0456C436.542 17.86 437.868 18.8828 438.872 20.1138C439.895 21.3259 440.671 22.5191 441.201 23.6934H441.571V1.81836H453.645V60.0002H441.713V53.0115H441.201C440.633 54.2237 439.828 55.4263 438.787 56.6195C437.764 57.7937 436.429 58.7691 434.781 59.5456C433.152 60.3222 431.164 60.7104 428.815 60.7104ZM432.65 51.0797C434.601 51.0797 436.249 50.5494 437.593 49.4888C438.957 48.4093 439.999 46.9036 440.718 44.9718C441.457 43.0399 441.826 40.7767 441.826 38.182C441.826 35.5873 441.467 33.3335 440.747 31.4206C440.027 29.5078 438.986 28.0305 437.622 26.9888C436.258 25.9471 434.601 25.4263 432.65 25.4263C430.662 25.4263 428.986 25.9661 427.622 27.0456C426.258 28.1252 425.226 29.6214 424.525 31.5343C423.825 33.4471 423.474 35.6631 423.474 38.182C423.474 40.7199 423.825 42.9642 424.525 44.915C425.245 46.8468 426.277 48.3619 427.622 49.4604C428.986 50.54 430.662 51.0797 432.65 51.0797Z" fill="black"/>
<path d="M383.389 60.8522C378.976 60.8522 375.16 59.9147 371.941 58.0397C368.74 56.1458 366.268 53.5132 364.526 50.142C362.783 46.7518 361.912 42.8219 361.912 38.3522C361.912 33.8447 362.783 29.9053 364.526 26.534C366.268 23.1439 368.74 20.5113 371.941 18.6363C375.16 16.7424 378.976 15.7954 383.389 15.7954C387.802 15.7954 391.609 16.7424 394.81 18.6363C398.03 20.5113 400.511 23.1439 402.253 26.534C403.995 29.9053 404.867 33.8447 404.867 38.3522C404.867 42.8219 403.995 46.7518 402.253 50.142C400.511 53.5132 398.03 56.1458 394.81 58.0397C391.609 59.9147 387.802 60.8522 383.389 60.8522ZM383.446 51.4772C385.454 51.4772 387.13 50.909 388.475 49.7727C389.819 48.6174 390.833 47.0454 391.514 45.0568C392.215 43.0681 392.566 40.8049 392.566 38.267C392.566 35.7291 392.215 33.4659 391.514 31.4772C390.833 29.4886 389.819 27.9166 388.475 26.7613C387.13 25.606 385.454 25.0284 383.446 25.0284C381.42 25.0284 379.715 25.606 378.333 26.7613C376.969 27.9166 375.937 29.4886 375.236 31.4772C374.554 33.4659 374.213 35.7291 374.213 38.267C374.213 40.8049 374.554 43.0681 375.236 45.0568C375.937 47.0454 376.969 48.6174 378.333 49.7727C379.715 50.909 381.42 51.4772 383.446 51.4772Z" fill="black"/>
<path d="M290.705 60V16.3636H302.239V24.0625H302.75C303.659 21.5056 305.174 19.4886 307.295 18.0113C309.417 16.534 311.955 15.7954 314.909 15.7954C317.902 15.7954 320.449 16.5435 322.551 18.0397C324.653 19.517 326.055 21.5246 326.756 24.0625H327.21C328.1 21.5625 329.71 19.5643 332.04 18.0681C334.388 16.553 337.163 15.7954 340.364 15.7954C344.436 15.7954 347.741 17.0928 350.278 19.6875C352.835 22.2632 354.114 25.9185 354.114 30.6534V60H342.04V33.0397C342.04 30.6155 341.396 28.7973 340.108 27.5852C338.82 26.3731 337.21 25.767 335.278 25.767C333.081 25.767 331.367 26.4678 330.136 27.8693C328.905 29.2518 328.29 31.0795 328.29 33.3522V60H316.557V32.784C316.557 30.6439 315.941 28.9393 314.71 27.6704C313.498 26.4015 311.898 25.767 309.909 25.767C308.564 25.767 307.352 26.1079 306.273 26.7897C305.212 27.4526 304.369 28.3901 303.744 29.6022C303.119 30.7954 302.807 32.1969 302.807 33.8068V60H290.705Z" fill="black"/>
<path d="M262.779 60.8522C258.29 60.8522 254.426 59.9431 251.188 58.125C247.968 56.2878 245.487 53.6931 243.745 50.3409C242.002 46.9697 241.131 42.9829 241.131 38.3806C241.131 33.892 242.002 29.9526 243.745 26.5625C245.487 23.1723 247.94 20.5303 251.102 18.6363C254.284 16.7424 258.015 15.7954 262.296 15.7954C265.174 15.7954 267.854 16.2594 270.335 17.1875C272.835 18.0965 275.013 19.4696 276.87 21.3068C278.745 23.1439 280.203 25.4545 281.245 28.2386C282.286 31.0037 282.807 34.2424 282.807 37.9545V41.2784H245.96V33.7784H271.415C271.415 32.0359 271.036 30.4924 270.279 29.1477C269.521 27.803 268.47 26.7518 267.125 25.9943C265.799 25.2178 264.256 24.8295 262.495 24.8295C260.657 24.8295 259.029 25.2556 257.608 26.1079C256.207 26.9412 255.108 28.0681 254.313 29.4886C253.517 30.8901 253.11 32.4526 253.091 34.1761V41.3068C253.091 43.4659 253.489 45.3314 254.284 46.9034C255.099 48.4753 256.244 49.6875 257.722 50.5397C259.199 51.392 260.951 51.8181 262.977 51.8181C264.322 51.8181 265.553 51.6287 266.671 51.25C267.788 50.8712 268.744 50.303 269.54 49.5454C270.335 48.7878 270.941 47.8598 271.358 46.7613L282.551 47.5C281.983 50.1893 280.818 52.5378 279.057 54.5454C277.315 56.534 275.061 58.0871 272.296 59.2045C269.549 60.303 266.377 60.8522 262.779 60.8522Z" fill="black"/>
<path d="M235.477 16.3637V25.4546H209.199V16.3637H235.477ZM215.165 5.90918H227.267V46.591C227.267 47.7084 227.437 48.5796 227.778 49.2046C228.119 49.8107 228.593 50.2368 229.199 50.483C229.824 50.7293 230.543 50.8524 231.358 50.8524C231.926 50.8524 232.494 50.805 233.062 50.7103C233.631 50.5967 234.066 50.5115 234.369 50.4546L236.273 59.4603C235.667 59.6497 234.814 59.8675 233.716 60.1137C232.617 60.3789 231.282 60.5399 229.71 60.5967C226.793 60.7103 224.237 60.3221 222.04 59.4319C219.862 58.5418 218.167 57.1592 216.954 55.2842C215.742 53.4092 215.146 51.0418 215.165 48.1819V5.90918Z" fill="black"/>
<path d="M178.304 60.8238C175.52 60.8238 173.039 60.3409 170.861 59.375C168.683 58.3901 166.959 56.9412 165.69 55.0284C164.44 53.0965 163.815 50.6912 163.815 47.8125C163.815 45.3882 164.261 43.3522 165.151 41.7045C166.041 40.0568 167.253 38.731 168.787 37.7272C170.321 36.7234 172.064 35.9659 174.014 35.4545C175.984 34.9431 178.048 34.5833 180.207 34.375C182.745 34.1098 184.791 33.8636 186.344 33.6363C187.897 33.3901 189.024 33.0303 189.725 32.5568C190.425 32.0833 190.776 31.3825 190.776 30.4545V30.284C190.776 28.4848 190.207 27.0928 189.071 26.1079C187.954 25.1231 186.363 24.6306 184.298 24.6306C182.12 24.6306 180.387 25.1136 179.1 26.0795C177.812 27.0265 176.959 28.2196 176.543 29.659L165.35 28.75C165.918 26.0984 167.035 23.8068 168.702 21.875C170.368 19.9242 172.518 18.428 175.151 17.3863C177.802 16.3257 180.87 15.7954 184.355 15.7954C186.779 15.7954 189.1 16.0795 191.315 16.6477C193.55 17.2159 195.529 18.0965 197.253 19.2897C198.995 20.4829 200.368 22.017 201.372 23.892C202.376 25.7481 202.878 27.9734 202.878 30.5681V60H191.401V53.9488H191.06C190.359 55.3125 189.421 56.5151 188.247 57.5568C187.073 58.5795 185.662 59.3844 184.014 59.9715C182.367 60.5397 180.463 60.8238 178.304 60.8238ZM181.77 52.4715C183.55 52.4715 185.122 52.1212 186.486 51.4204C187.85 50.7007 188.92 49.7348 189.696 48.5227C190.473 47.3106 190.861 45.9375 190.861 44.4034V39.7727C190.482 40.0189 189.961 40.2462 189.298 40.4545C188.654 40.6439 187.925 40.8238 187.111 40.9943C186.296 41.1458 185.482 41.2878 184.668 41.4204C183.853 41.534 183.115 41.6382 182.452 41.7329C181.031 41.9412 179.791 42.2727 178.73 42.7272C177.67 43.1818 176.846 43.7973 176.259 44.5738C175.671 45.3314 175.378 46.2784 175.378 47.4147C175.378 49.0625 175.975 50.3219 177.168 51.1931C178.38 52.0454 179.914 52.4715 181.77 52.4715Z" fill="black"/>
<path d="M160.84 16.3638L145.584 60.0001H131.948L116.692 16.3638H129.476L138.538 47.5854H138.993L148.027 16.3638H160.84Z" fill="black"/>
<path d="M65.6265 60.0001V16.3638H77.3594V23.9774H77.814C78.6094 21.2691 79.9446 19.2236 81.8196 17.841C83.6946 16.4395 85.8537 15.7388 88.2969 15.7388C88.903 15.7388 89.5564 15.7766 90.2571 15.8524C90.9579 15.9282 91.5734 16.0323 92.1037 16.1649V26.9035C91.5356 26.7331 90.7496 26.5816 89.7458 26.449C88.742 26.3164 87.8234 26.2501 86.9901 26.2501C85.2098 26.2501 83.6189 26.6384 82.2174 27.4149C80.8348 28.1725 79.7363 29.2331 78.9219 30.5967C78.1265 31.9604 77.7287 33.5323 77.7287 35.3126V60.0001H65.6265Z" fill="black"/>
<path d="M98 16H110V60H98V16Z" fill="black"/>
</svg>
