<svg width="24" height="24" viewBox="0 0 24 24" fill="none" xmlns="http://www.w3.org/2000/svg">
<path fill-rule="evenodd" clip-rule="evenodd" d="M22.143 1.85881C20.7312 1.85733 18.4237 2.08363 15.866 3.2483C12.6847 4.69689 8.96308 7.66461 6.07339 13.8075L10.2051 17.943C16.3423 15.0507 19.3074 11.3257 20.7547 8.14151C21.9183 5.58143 22.1445 3.27188 22.143 1.85881ZM23.9475 0.662544C23.9171 0.333025 23.6674 0.0831172 23.3382 0.0526853C20.8391 -0.178236 10.282 -0.26045 4.07404 13.7138C3.94197 14.0111 4.00593 14.3669 4.23576 14.597L9.41651 19.7825C9.64635 20.0126 10.0017 20.0764 10.2987 19.9442C24.2601 13.7305 24.1782 3.16393 23.9475 0.662544Z" fill="white"/>
<path fill-rule="evenodd" clip-rule="evenodd" d="M15.9579 8.99666C16.544 8.99666 17.0191 8.52111 17.0191 7.93446C17.0191 7.34784 16.544 6.87227 15.9579 6.87227C15.3718 6.87227 14.8967 7.34784 14.8967 7.93446C14.8967 8.52111 15.3718 8.99666 15.9579 8.99666ZM15.9579 10.8555C17.5696 10.8555 18.8762 9.54772 18.8762 7.93446C18.8762 6.32123 17.5696 5.01343 15.9579 5.01343C14.3461 5.01343 13.0396 6.32123 13.0396 7.93446C13.0396 9.54772 14.3461 10.8555 15.9579 10.8555Z" fill="white"/>
<path fill-rule="evenodd" clip-rule="evenodd" d="M6.26898 17.6336C6.63162 17.9965 6.63162 18.585 6.26898 18.9479L2.02412 23.1967C1.6615 23.5597 1.07356 23.5597 0.710934 23.1967C0.348308 22.8337 0.348308 22.2452 0.710934 21.8823L4.95581 17.6336C5.31842 17.2706 5.90636 17.2706 6.26898 17.6336Z" fill="white"/>
<path fill-rule="evenodd" clip-rule="evenodd" d="M4.14638 15.7747C4.50903 16.1376 4.50903 16.7261 4.14638 17.0891L2.28926 18.9479C1.92663 19.3109 1.3387 19.3109 0.976071 18.9479C0.613445 18.5849 0.613445 17.9965 0.976071 17.6335L2.83321 15.7747C3.19582 15.4117 3.78376 15.4117 4.14638 15.7747Z" fill="white"/>
<path fill-rule="evenodd" clip-rule="evenodd" d="M8.39127 19.7578C8.75392 20.1208 8.75392 20.7093 8.39127 21.0722L5.73823 23.7276C5.37562 24.0907 4.78768 24.0907 4.42506 23.7276C4.06242 23.3646 4.06242 22.7762 4.42506 22.4132L7.0781 19.7578C7.44072 19.3949 8.02866 19.3949 8.39127 19.7578Z" fill="white"/>
<path fill-rule="evenodd" clip-rule="evenodd" d="M5.58199 3.97393C5.94233 3.65333 6.4376 3.53158 6.90533 3.6486L10.8784 4.64279L10.428 6.44613L6.65876 5.50296L2.22518 9.44755L5.92612 10.7773L5.29865 12.5268L0.966658 10.9703C-0.0759031 10.5957 -0.337669 9.24068 0.490238 8.50411L5.58199 3.97393Z" fill="white"/>
<path fill-rule="evenodd" clip-rule="evenodd" d="M20.1672 18.3464C20.5142 17.9561 20.6266 17.4101 20.4618 16.9143L19.2347 13.2219L17.4725 13.8087L18.627 17.2825L14.714 21.6827L13.388 17.9774L11.6396 18.6042L13.1918 22.9413C13.5653 23.9852 14.9189 24.2481 15.6554 23.4198L20.1672 18.3464Z" fill="white"/>
</svg>
