<svg width="12" height="14" viewBox="0 0 12 14" fill="none" xmlns="http://www.w3.org/2000/svg">
<g clip-path="url(#clip0_0_548)">
<path fill-rule="evenodd" clip-rule="evenodd" d="M9.17504 10.5945C9.96912 9.57653 10.4222 8.22603 10.4222 6.40651V3.19066C8.72954 3.0007 7.13339 2.37132 5.76411 1.38196C5.1329 1.80647 4.36436 2.19343 3.58375 2.50093C2.79785 2.8105 1.92954 3.06731 1.08889 3.19566V6.40651C1.08889 8.24189 1.52553 9.55707 2.30151 10.5518C3.03655 11.494 4.15422 12.2492 5.75377 12.848C7.30887 12.306 8.42826 11.5518 9.17504 10.5945ZM5.7393 14C1.93478 12.6829 0 10.439 0 6.40651V2.19512C1.91851 2.19512 4.64998 1.04065 5.77181 0C7.36515 1.38211 9.38123 2.1626 11.5111 2.1626V6.40651C11.5111 10.4228 9.49505 12.813 5.7393 14Z" fill="#75FB7A"/>
<path fill-rule="evenodd" clip-rule="evenodd" d="M8.62937 5.05948C8.84199 5.27211 8.84199 5.61682 8.62937 5.82945L5.62826 8.83057C5.35488 9.10393 4.91167 9.10393 4.6383 8.83057L2.88163 7.0739C2.66901 6.86127 2.66901 6.51656 2.88163 6.30393C3.09426 6.09132 3.43897 6.09132 3.6516 6.30393L5.13328 7.78563L7.85941 5.05948C8.07203 4.84687 8.41675 4.84687 8.62937 5.05948Z" fill="#75FB7A"/>
</g>
<defs>
<clipPath id="clip0_0_548">
<rect width="11.5111" height="14" fill="white"/>
</clipPath>
</defs>
</svg>
