<svg width="18" height="18" viewBox="0 0 18 18" fill="none" xmlns="http://www.w3.org/2000/svg">
<g clip-path="url(#clip0_0_562)">
<path fill-rule="evenodd" clip-rule="evenodd" d="M6.75798 11.0013L7.36098 9.72442C7.76264 9.91408 8.08592 10.2374 8.2756 10.639L6.99868 11.242C6.94876 11.1363 6.86368 11.0512 6.75798 11.0013ZM6.75798 11.0013L7.36098 9.72442L2.75202 7.54796L15.8275 2.17246L10.452 15.248L8.2756 10.639L6.99868 11.242L10.0535 17.711C10.2406 18.1073 10.8093 18.0928 10.976 17.6874L17.9607 0.69749C18.1311 0.283118 17.7169 -0.131079 17.3025 0.0392743L0.312572 7.02404C-0.0927618 7.19068 -0.107304 7.75938 0.288984 7.94652L6.75798 11.0013Z" fill="#4D4D4D"/>
<path fill-rule="evenodd" clip-rule="evenodd" d="M17.0081 2.00054L7.93016 11.0785L6.93164 10.08L16.0096 1.00201L17.0081 2.00054Z" fill="#4D4D4D"/>
</g>
<defs>
<clipPath id="clip0_0_562">
<rect width="18" height="18" fill="white"/>
</clipPath>
</defs>
</svg>
