<svg width="13" height="14" viewBox="0 0 13 14" fill="none" xmlns="http://www.w3.org/2000/svg">
<path fill-rule="evenodd" clip-rule="evenodd" d="M0 2.56666C0 2.26597 0.246922 2.02222 0.551515 2.02222H11.5818C11.8864 2.02222 12.1333 2.26597 12.1333 2.56666C12.1333 2.86735 11.8864 3.11111 11.5818 3.11111H0.551515C0.246922 3.11111 0 2.86735 0 2.56666Z" fill="#4D4D4D"/>
<path fill-rule="evenodd" clip-rule="evenodd" d="M1.71119 3.88892C2.01188 3.88892 2.25564 4.13267 2.25564 4.43336V12.9111H9.87786V4.43336C9.87786 4.13267 10.1216 3.88892 10.4223 3.88892C10.723 3.88892 10.9667 4.13267 10.9667 4.43336V12.9889C10.9667 13.5473 10.5141 14 9.95564 14H2.17786C1.61944 14 1.16675 13.5473 1.16675 12.9889V4.43336C1.16675 4.13267 1.4105 3.88892 1.71119 3.88892Z" fill="#4D4D4D"/>
<path fill-rule="evenodd" clip-rule="evenodd" d="M8.94446 1.01111L8.94446 2.25555L7.85557 2.25555L7.85557 1.08889L4.27779 1.08889L4.27779 2.25555L3.1889 2.25555L3.1889 1.01111C3.1889 0.452689 3.64159 -4.90083e-07 4.20001 -5.38902e-07L7.93335 -8.6528e-07C8.49177 -9.14099e-07 8.94446 0.452689 8.94446 1.01111Z" fill="#4D4D4D"/>
<path fill-rule="evenodd" clip-rule="evenodd" d="M4.66664 5.28888C4.96732 5.28888 5.21108 5.53264 5.21108 5.83332V10.5778C5.21108 10.8785 4.96732 11.1222 4.66664 11.1222C4.36595 11.1222 4.12219 10.8785 4.12219 10.5778V5.83332C4.12219 5.53264 4.36595 5.28888 4.66664 5.28888Z" fill="#4D4D4D"/>
<path fill-rule="evenodd" clip-rule="evenodd" d="M7.46669 5.28888C7.76737 5.28888 8.01113 5.53264 8.01113 5.83332V10.5778C8.01113 10.8785 7.76737 11.1222 7.46669 11.1222C7.166 11.1222 6.92224 10.8785 6.92224 10.5778V5.83332C6.92224 5.53264 7.166 5.28888 7.46669 5.28888Z" fill="#4D4D4D"/>
</svg>
