<svg width="12" height="13" viewBox="0 0 12 13" fill="none" xmlns="http://www.w3.org/2000/svg">
<path fill-rule="evenodd" clip-rule="evenodd" d="M0 2.38333C0 2.10412 0.229284 1.87778 0.512121 1.87778H10.7545C11.0374 1.87778 11.2667 2.10412 11.2667 2.38333C11.2667 2.66254 11.0374 2.88889 10.7545 2.88889H0.512121C0.229284 2.88889 0 2.66254 0 2.38333Z" fill="#CCCCCC"/>
<path fill-rule="evenodd" clip-rule="evenodd" d="M1.58893 3.61111C1.86814 3.61111 2.09448 3.83746 2.09448 4.11667V11.9889H9.17226V4.11667C9.17226 3.83746 9.39861 3.61111 9.67782 3.61111C9.95703 3.61111 10.1834 3.83746 10.1834 4.11667V12.0611C10.1834 12.5796 9.76302 13 9.24448 13H2.02226C1.50373 13 1.08337 12.5796 1.08337 12.0611V4.11667C1.08337 3.83746 1.30972 3.61111 1.58893 3.61111Z" fill="#CCCCCC"/>
<path fill-rule="evenodd" clip-rule="evenodd" d="M8.30554 0.938897L8.30554 2.09445L7.29443 2.09445L7.29443 1.01112L3.97221 1.01112L3.97221 2.09445L2.9611 2.09445L2.9611 0.938897C2.9611 0.420363 3.38145 8.29829e-06 3.89999 8.25296e-06L7.36665 7.94989e-06C7.88519 7.90456e-06 8.30554 0.420363 8.30554 0.938897Z" fill="#CCCCCC"/>
<path fill-rule="evenodd" clip-rule="evenodd" d="M4.33331 4.9111C4.61252 4.9111 4.83887 5.13745 4.83887 5.41666V9.82221C4.83887 10.1014 4.61252 10.3278 4.33331 10.3278C4.0541 10.3278 3.82776 10.1014 3.82776 9.82221V5.41666C3.82776 5.13745 4.0541 4.9111 4.33331 4.9111Z" fill="#CCCCCC"/>
<path fill-rule="evenodd" clip-rule="evenodd" d="M6.93329 4.9111C7.2125 4.9111 7.43885 5.13745 7.43885 5.41666V9.82221C7.43885 10.1014 7.2125 10.3278 6.93329 10.3278C6.65408 10.3278 6.42773 10.1014 6.42773 9.82221V5.41666C6.42773 5.13745 6.65408 4.9111 6.93329 4.9111Z" fill="#CCCCCC"/>
</svg>
